<?xml version="1.0" encoding="utf-8"?>
<!-- Generator: Adobe Illustrator 18.0.0, SVG Export Plug-In . SVG Version: 6.00 Build 0)  -->
<!DOCTYPE svg PUBLIC "-//W3C//DTD SVG 1.1//EN" "http://www.w3.org/Graphics/SVG/1.1/DTD/svg11.dtd">
<svg version="1.1" id="Vrstva_1" xmlns="http://www.w3.org/2000/svg" xmlns:xlink="http://www.w3.org/1999/xlink" x="0px" y="0px"
	 viewBox="200 -34 400 400" enable-background="new 200 -34 400 400" xml:space="preserve">
<path fill="#F9F9F9" d="M571.5,190c0,3.7-1.4,6.9-4.1,9.6c-2.7,2.7-5.9,4.1-9.6,4.1h-48c0,24.4-4.8,45.2-14.4,62.2l44.6,44.8
	c2.7,2.7,4.1,5.9,4.1,9.6c0,3.7-1.4,6.9-4.1,9.6c-2.6,2.7-5.8,4.1-9.6,4.1s-7.1-1.4-9.6-4.1l-42.4-42.2c-0.7,0.7-1.8,1.6-3.2,2.8
	c-1.4,1.1-4.4,3.2-9,6.1c-4.6,2.9-9.2,5.5-13.9,7.8c-4.7,2.3-10.6,4.4-17.6,6.2c-7,1.9-13.9,2.8-20.8,2.8V121.4h-27.5v192.1
	c-7.3,0-14.5-1-21.8-2.9s-13.4-4.3-18.6-7.1c-5.2-2.8-9.9-5.6-14.1-8.4c-4.2-2.8-7.3-5.1-9.3-7l-3.2-3L280,329.5
	c-2.9,3-6.3,4.5-10.3,4.5c-3.4,0-6.5-1.1-9.2-3.4c-2.7-2.6-4.2-5.8-4.4-9.5c-0.2-3.8,0.9-7.1,3.3-10l43.3-48.6
	c-8.3-16.3-12.4-35.9-12.4-58.7h-48c-3.7,0-6.9-1.4-9.6-4.1c-2.7-2.7-4.1-5.9-4.1-9.6s1.4-6.9,4.1-9.6c2.7-2.7,5.9-4.1,9.6-4.1h48
	v-63l-37.1-37.1c-2.7-2.7-4.1-5.9-4.1-9.6c0-3.7,1.4-6.9,4.1-9.6c2.7-2.7,5.9-4.1,9.6-4.1c3.7,0,6.9,1.4,9.6,4.1L309.5,94h180.9
	l37.1-37.1c2.7-2.7,5.9-4.1,9.6-4.1s6.9,1.4,9.6,4.1c2.7,2.7,4.1,5.9,4.1,9.6c0,3.7-1.4,6.9-4.1,9.6l-37.1,37.1v63h48
	c3.7,0,6.9,1.4,9.6,4.1C570.1,183.1,571.5,186.3,571.5,190z M468.6,66.5H331.4c0-19,6.7-35.2,20-48.6s29.5-20,48.5-20
	s35.2,6.7,48.6,20C461.9,31.3,468.6,47.5,468.6,66.5z"/>
</svg>
