<?xml version="1.0" encoding="utf-8"?>
<!-- Generator: Adobe Illustrator 18.0.0, SVG Export Plug-In . SVG Version: 6.00 Build 0)  -->
<!DOCTYPE svg PUBLIC "-//W3C//DTD SVG 1.1//EN" "http://www.w3.org/Graphics/SVG/1.1/DTD/svg11.dtd">
<svg version="1.1" id="Vrstva_1" xmlns="http://www.w3.org/2000/svg" xmlns:xlink="http://www.w3.org/1999/xlink" x="0px" y="0px"
	 viewBox="0 0 1792 1792" enable-background="new 0 0 1792 1792" xml:space="preserve">
<path fill="#F9F9F9" d="M1795.8,1021.4c0,19.4-7.1,36.2-21.3,50.4c-14.2,14.2-31,21.3-50.4,21.3h-250.9c0,127.7-25,235.9-75,324.8
	l232.9,234.1c14.2,14.2,21.3,31,21.3,50.4s-7.1,36.2-21.3,50.4c-13.4,14.2-30.2,21.3-50.4,21.3c-20.2,0-37-7.1-50.4-21.3
	l-221.7-220.6c-3.7,3.7-9.3,8.6-16.8,14.6c-7.5,6-23.1,16.6-47,31.9c-23.9,15.3-48.2,28.9-72.8,40.9c-24.6,11.9-55.2,22.8-91.8,32.5
	c-36.6,9.7-72.8,14.6-108.6,14.6V663.1H828.2v1003.4c-38.1,0-76-5-113.7-15.1c-37.7-10.1-70.2-22.4-97.4-37
	c-27.3-14.6-51.9-29.1-73.9-43.7c-22-14.6-38.3-26.7-48.7-36.4l-16.8-15.7l-204.9,231.8c-14.9,15.7-32.9,23.5-53.8,23.5
	c-17.9,0-34-6-48.2-17.9c-14.2-13.4-21.8-30.1-23-49.8c-1.1-19.8,4.7-37.1,17.4-52.1L391.5,1400c-43.3-85.1-65-187.4-65-306.9H75.7
	c-19.4,0-36.2-7.1-50.4-21.3S4,1040.8,4,1021.4c0-19.4,7.1-36.2,21.3-50.4c14.2-14.2,31-21.3,50.4-21.3h250.9V620.5L132.8,426.8
	c-14.2-14.2-21.3-31-21.3-50.4c0-19.4,7.1-36.2,21.3-50.4c14.2-14.2,31-21.3,50.4-21.3s36.2,7.1,50.4,21.3l193.7,193.7h945.2
	L1566.3,326c14.2-14.2,31-21.3,50.4-21.3s36.2,7.1,50.4,21.3c14.2,14.2,21.3,31,21.3,50.4c0,19.4-7.1,36.2-21.3,50.4l-193.7,193.7
	v329.3h250.9c19.4,0,36.2,7.1,50.4,21.3C1788.7,985.2,1795.8,1002,1795.8,1021.4z M1258.3,376.4H541.6
	c0-99.3,34.9-183.8,104.7-253.7S800.6,18,899.9,18s183.8,34.9,253.7,104.7C1223.4,192.5,1258.3,277.1,1258.3,376.4z"/>
</svg>
