<?xml version="1.0" encoding="utf-8"?>
<!-- Generator: Adobe Illustrator 18.0.0, SVG Export Plug-In . SVG Version: 6.00 Build 0)  -->
<!DOCTYPE svg PUBLIC "-//W3C//DTD SVG 1.1//EN" "http://www.w3.org/Graphics/SVG/1.1/DTD/svg11.dtd">
<svg version="1.1" id="Vrstva_1" xmlns="http://www.w3.org/2000/svg"  x="0px" y="0px"
	 viewBox="0 0 50 50" enable-background="new 0 0 50 50" xml:space="preserve">
<g>
	<g>
		<path fill="#E5E5E5" d="M5,25.2c0-2.1,0.6-3.8,1.9-5.1c1.3-1.3,2.9-1.9,4.9-1.9c2.4,0,4.3,0.8,5.6,2.3l-1.6,1.9
			c-1-1-2.2-1.5-3.7-1.5c0,0-0.1,0-0.1,0c-1.2,0-2.1,0.4-2.9,1.2C8.3,22.8,8,23.9,8,25.2s0.4,2.3,1.1,3.1c0.8,0.8,1.7,1.2,2.9,1.2
			c1.7,0,3-0.5,4-1.6l1.6,1.6c-1.3,1.6-3.2,2.4-5.7,2.4c-2,0-3.7-0.6-4.9-1.9C5.7,28.8,5,27.2,5,25.2z"/>
		<path fill="#E5E5E5" d="M18.8,25c0-2,0.7-3.7,2-4.9c1.3-1.3,3-1.9,5.1-1.9c2.1,0,3.8,0.6,5.1,1.9c1.3,1.3,2,2.9,2,4.9
			c0,2-0.7,3.7-2,5c-1.3,1.3-3,1.9-5.1,1.9c-2.1,0-3.8-0.6-5.1-1.9C19.5,28.7,18.8,27,18.8,25z M21.8,25c0,1.3,0.4,2.4,1.2,3.2
			c0.8,0.8,1.8,1.2,3,1.2c1.2,0,2.2-0.4,3-1.2c0.8-0.8,1.1-1.9,1.1-3.2c0-1.3-0.4-2.4-1.1-3.2c-0.8-0.8-1.8-1.2-3-1.2
			c-1.2,0-2.2,0.4-3,1.2C22.1,22.6,21.8,23.7,21.8,25z"/>
		<path fill="#E5E5E5" d="M34.4,29.9l1-2.1c0.6,0.5,1.3,0.9,2.1,1.2c0.8,0.3,1.6,0.5,2.4,0.5c0.7,0,1.2-0.1,1.6-0.4
			c0.4-0.2,0.6-0.6,0.6-1.1c0-0.3-0.1-0.5-0.2-0.8c-0.2-0.2-0.4-0.4-0.7-0.5c-0.3-0.1-0.6-0.3-1-0.4c-0.4-0.1-0.7-0.2-1.1-0.3
			c-0.4-0.1-0.8-0.2-1.2-0.4s-0.8-0.3-1.1-0.5s-0.7-0.4-0.9-0.7c-0.3-0.3-0.5-0.6-0.6-1C35.1,23,35,22.6,35,22.1
			c0-0.7,0.1-1.3,0.4-1.8c0.3-0.5,0.6-0.9,1.1-1.2c0.5-0.3,1-0.5,1.6-0.7c0.6-0.2,1.2-0.2,1.9-0.2c0.9,0,1.7,0.1,2.6,0.4
			c0.8,0.2,1.6,0.6,2.2,1l-1.1,2.2c-0.6-0.4-1.2-0.6-1.9-0.9s-1.4-0.3-1.9-0.3c-1.3,0-2,0.4-2,1.3c0,0.3,0.1,0.6,0.4,0.8
			s0.6,0.4,1,0.6c0.4,0.1,0.9,0.3,1.4,0.4c0.5,0.1,1,0.3,1.5,0.5s1,0.4,1.4,0.7c0.4,0.3,0.8,0.7,1,1.2c0.3,0.5,0.4,1.1,0.4,1.7
			c0,0.7-0.1,1.3-0.4,1.8s-0.7,1-1.2,1.3c-0.5,0.3-1,0.6-1.6,0.7s-1.3,0.2-2,0.2c-1,0-2-0.2-3-0.5C35.8,31,35,30.5,34.4,29.9z"/>
	</g>
</g>
</svg>
